<?xml version="1.0" encoding="UTF-8"?>
<svg version="1.1" xmlns="http://www.w3.org/2000/svg" width="232" height="232">
<path d="M0 0 C19.89103603 16.42614588 32.42466067 37.02210373 35.71875 62.8046875 C38.00705871 88.80241698 30.40553429 111.67949888 14.375 132.125 C0.92929012 147.68507342 -16.37153497 156.73033925 -36 162 C-36.63389648 162.18546387 -37.26779297 162.37092773 -37.92089844 162.56201172 C-43.1020182 164.00464343 -48.00772214 164.38400995 -53.375 164.375 C-54.23407959 164.37556396 -55.09315918 164.37612793 -55.97827148 164.37670898 C-65.9292347 164.20996361 -75.57049684 162.14316772 -85 159 C-92.57406323 158.12671555 -97.1593062 160.76202077 -103.625 164.5 C-114.75056758 170.87761409 -114.75056758 170.87761409 -120 170 C-123.77144156 168.28570838 -125.52774423 166.85525582 -127 163 C-127.01171875 160.66015625 -127.01171875 160.66015625 -126.6875 158.0625 C-126.05689365 152.56509642 -125.64500036 147.07589838 -125.28125 141.5546875 C-125 139 -125 139 -124 138 C-124.30771438 132.48789885 -125.58809685 129.67234676 -129.125 125.5 C-138.818612 113.18232106 -143.62452535 98.79658099 -145.6875 83.375 C-145.81705078 82.48554687 -145.94660156 81.59609375 -146.08007812 80.6796875 C-149.03312051 59.43028199 -141.72380432 36.21167678 -129 19 C-125.60387411 14.72408738 -121.88086451 10.83547428 -118 7 C-117.28328125 6.27296875 -116.5665625 5.5459375 -115.828125 4.796875 C-84.42656904 -25.18806941 -34.01947375 -25.35366894 0 0 Z M-109 88 C-111.31478278 94.96937303 -107.70256929 102.5067975 -104.640625 108.7890625 C-96.29431318 123.28292658 -83.51099242 132.97092001 -67.5 137.8125 C-52.42037919 141.5136692 -39.04056339 136.48972405 -26 129 C-14.15795269 121.67520782 -6.84555415 110.21909238 -3 97 C-1.95164333 92.70931551 -1.95164333 92.70931551 -3.0625 88.625 C-4.97566556 86.72077453 -4.97566556 86.72077453 -8.0625 86.625 C-11.11861241 86.71069764 -11.11861241 86.71069764 -13 89 C-13.63248664 90.81696162 -14.20765553 92.65412585 -14.75 94.5 C-18.43448818 105.78290152 -24.20144946 114.57744537 -34.70703125 120.53515625 C-47.04605848 126.45443784 -57.7637789 127.61084843 -70.7890625 123.25390625 C-81.78965319 118.95805514 -89.78441759 112.24189137 -94.8125 101.4375 C-96.66422734 97.00457697 -98.33165981 92.50451851 -100 88 C-101.11101184 86.66351983 -101.11101184 86.66351983 -103.9375 86.875 C-106.91545728 86.78674336 -106.91545728 86.78674336 -109 88 Z " fill="#2089E8" transform="translate(172,42)"/>
<path d="M0 0 C0.66644531 0.38671875 1.33289063 0.7734375 2.01953125 1.171875 C19.12123519 10.83493569 31.96915548 12.60689032 51 8 C49.60804085 10.7839183 47.84424221 10.97898997 45 12 C45 12.33 45 12.66 45 13 C44.18321777 12.99476318 43.36643555 12.98952637 42.52490234 12.98413086 C38.80827612 12.96328651 35.09166222 12.95031608 31.375 12.9375 C30.08980469 12.92912109 28.80460937 12.92074219 27.48046875 12.91210938 C26.23652344 12.90888672 24.99257812 12.90566406 23.7109375 12.90234375 C21.99849854 12.89448853 21.99849854 12.89448853 20.25146484 12.88647461 C17.08116287 12.99716619 14.12238901 13.47223727 11 14 C8.125 13.5625 8.125 13.5625 6 13 C6 11.68 6 10.36 6 9 C5.67 8.01 5.34 7.02 5 6 C3.68 6 2.36 6 1 6 C0.67 4.02 0.34 2.04 0 0 Z " fill="#489AE3" transform="translate(83,169)"/>
<path d="M0 0 C0 0.66 0 1.32 0 2 C-12.58276471 5.93650739 -27.00237373 8.62932594 -40 5 C-40 4.34 -40 3.68 -40 3 C-39.00371582 2.970271 -39.00371582 2.970271 -37.98730469 2.93994141 C-21.98722955 2.59156712 -21.98722955 2.59156712 -6.171875 0.40234375 C-4 0 -4 0 0 0 Z " fill="#63A6DE" transform="translate(144,200)"/>
<path d="M0 0 C0.33 0 0.66 0 1 0 C1.12014384 5.28632888 0.79766757 9.43538449 -2 14 C-4.60319658 16.35127433 -5.42129926 17 -9 17 C-9 17.66 -9 18.32 -9 19 C-9.66 19 -10.32 19 -11 19 C-9.06049511 14.80097192 -6.37282256 11.25893262 -3.65625 7.53515625 C-2.05218451 5.07987677 -0.98527243 2.75383644 0 0 Z " fill="#4A9CE0" transform="translate(166,145)"/>
<path d="M0 0 C0.33 0 0.66 0 1 0 C1.08636719 0.91523438 1.17273437 1.83046875 1.26171875 2.7734375 C1.40222656 3.96195313 1.54273438 5.15046875 1.6875 6.375 C1.87892578 8.15003906 1.87892578 8.15003906 2.07421875 9.9609375 C2.67504985 13.17224057 2.67504985 13.17224057 5.375 14.375 C8.23883501 15.05686548 11.08434687 15.59316468 14 16 C12 18 12 18 9.1875 18.3125 C5.5895561 17.9597604 3.83937302 17.20840123 1 15 C-1.23997295 11.63252389 -1.09496288 9.19768817 -0.625 5.25 C-0.51414063 4.26515625 -0.40328125 3.2803125 -0.2890625 2.265625 C-0.19367187 1.51796875 -0.09828125 0.7703125 0 0 Z " fill="#6BADE3" transform="translate(46,194)"/>
<path d="M0 0 C4.83372821 0.01638552 9.41342223 0.3215333 14.1796875 1.1328125 C14.1796875 1.4628125 14.1796875 1.7928125 14.1796875 2.1328125 C13.23996094 2.33197266 13.23996094 2.33197266 12.28125 2.53515625 C11.05535156 2.80005859 11.05535156 2.80005859 9.8046875 3.0703125 C8.99257812 3.24433594 8.18046875 3.41835937 7.34375 3.59765625 C5.1502245 4.05611943 5.1502245 4.05611943 3.1796875 5.1328125 C1.18008738 5.1728045 -0.82078492 5.17628049 -2.8203125 5.1328125 C-2.8203125 0.20577387 -2.8203125 0.20577387 0 0 Z " fill="#288CE5" transform="translate(71.8203125,197.8671875)"/>
<path d="M0 0 C2.62386487 3.06117568 3 3.73173127 3 8 C3.61875 8.268125 4.2375 8.53625 4.875 8.8125 C7 10 7 10 9 13 C9 13.99 9 14.98 9 16 C9.66 16.33 10.32 16.66 11 17 C10.67 17.99 10.34 18.98 10 20 C8.53229396 17.96453936 7.07595128 15.92235457 5.625 13.875 C5.2125 13.30523437 4.8 12.73546875 4.375 12.1484375 C1.84172916 8.55282728 0.18741713 5.29296964 -1 1 C-0.67 0.67 -0.34 0.34 0 0 Z " fill="#60A5DF" transform="translate(36,152)"/>
<path d="M0 0 C0 0.66 0 1.32 0 2 C-0.61875 2.2475 -1.2375 2.495 -1.875 2.75 C-4.11738845 3.80962759 -4.11738845 3.80962759 -4.9375 5.875 C-6.41492007 8.82984013 -8.24290981 10.22758488 -11 12 C-13.1640625 11.60546875 -13.1640625 11.60546875 -15 11 C-13.39801112 9.53927468 -11.79332884 8.08150284 -10.1875 6.625 C-9.29417969 5.81289063 -8.40085937 5.00078125 -7.48046875 4.1640625 C-2.70758123 0 -2.70758123 0 0 0 Z " fill="#55A0E0" transform="translate(68,39)"/>
<path d="M0 0 C0.66 0 1.32 0 2 0 C0.61811547 3.21043882 -0.92421903 5.04936365 -3.625 7.25 C-4.57246094 8.03117188 -4.57246094 8.03117188 -5.5390625 8.828125 C-6.02117187 9.21484375 -6.50328125 9.6015625 -7 10 C-8 7 -8 7 -6.875 4.3125 C-5 2 -5 2 -2.3125 1.6875 C-1.549375 1.790625 -0.78625 1.89375 0 2 C0 1.34 0 0.68 0 0 Z " fill="#539DDE" transform="translate(147,152)"/>
<path d="M0 0 C0 0.33 0 0.66 0 1 C-2.31 1.33 -4.62 1.66 -7 2 C-6.97679687 2.61488281 -6.95359375 3.22976562 -6.9296875 3.86328125 C-6.91164062 4.67152344 -6.89359375 5.47976562 -6.875 6.3125 C-6.85179687 7.11300781 -6.82859375 7.91351563 -6.8046875 8.73828125 C-7 11 -7 11 -9 14 C-9.33 9.38 -9.66 4.76 -10 0 C-6.30581799 -1.231394 -3.7943739 -0.64432764 0 0 Z " fill="#61A8E2" transform="translate(70,128)"/>
<path d="M0 0 C0.99 0 1.98 0 3 0 C2.67 1.65 2.34 3.3 2 5 C1.34 5 0.68 5 0 5 C-0.33 7.31 -0.66 9.62 -1 12 C-1.66 12 -2.32 12 -3 12 C-3.33 12.99 -3.66 13.98 -4 15 C-3.43179252 9.54520815 -2.05362055 5.08940744 0 0 Z " fill="#579FDE" transform="translate(33,79)"/>
<path d="M0 0 C2.125 0.375 2.125 0.375 4 1 C3.75 3.375 3.75 3.375 3 6 C0.9375 7.3125 0.9375 7.3125 -1 8 C-1.625 5.125 -1.625 5.125 -2 2 C-1.34 1.34 -0.68 0.68 0 0 Z " fill="#3792E4" transform="translate(173,178)"/>
<path d="M0 0 C2.39409047 2.39409047 2.78821084 4.07067225 3.6875 7.3125 C3.95949219 8.25738281 4.23148438 9.20226562 4.51171875 10.17578125 C5.02379901 13.13765347 4.78127347 15.1213481 4 18 C2.36427347 15.03095016 1.51349012 12.32420253 0.875 9 C0.70742187 8.154375 0.53984375 7.30875 0.3671875 6.4375 C0 4 0 4 0 0 Z " fill="#64A8E0" transform="translate(201,82)"/>
<path d="M0 0 C0.66 0 1.32 0 2 0 C1.45018084 6.04801071 0.09570426 11.30601106 -2 17 C-2.33 17 -2.66 17 -3 17 C-3.40214229 10.83381819 -1.96818336 5.82254243 0 0 Z " fill="#6BABE2" transform="translate(204,131)"/>
<path d="M0 0 C4.05281712 1.22527029 7.44360764 2.69880494 11 5 C10.34 5.66 9.68 6.32 9 7 C9 6.34 9 5.68 9 5 C7.02 5.99 7.02 5.99 5 7 C4.731875 6.360625 4.46375 5.72125 4.1875 5.0625 C3.11332248 2.66868314 3.11332248 2.66868314 0 2 C0 1.34 0 0.68 0 0 Z " fill="#519EE3" transform="translate(155,33)"/>
<path d="M0 0 C0.66 0 1.32 0 2 0 C2 0.66 2 1.32 2 2 C4.97 2.495 4.97 2.495 8 3 C8 3.99 8 4.98 8 6 C8.66 6.33 9.32 6.66 10 7 C9.67 7.99 9.34 8.98 9 10 C7.68113228 8.90344712 6.37009943 7.79746577 5.0625 6.6875 C4.33160156 6.07261719 3.60070312 5.45773438 2.84765625 4.82421875 C1 3 1 3 0 0 Z " fill="#5CA3DF" transform="translate(81,150)"/>
<path d="M0 0 C-1 2 -1 2 -3 5 C-5.3828125 5.73046875 -5.3828125 5.73046875 -8.125 6.1875 C-9.49011719 6.42533203 -9.49011719 6.42533203 -10.8828125 6.66796875 C-11.58148438 6.77753906 -12.28015625 6.88710938 -13 7 C-9.48279054 3.25760335 -5.29643413 0 0 0 Z " fill="#60A7E3" transform="translate(81,32)"/>
<path d="M0 0 C-1.47692308 4.67692308 -1.47692308 4.67692308 -4.125 6.3125 C-5.053125 6.6528125 -5.053125 6.6528125 -6 7 C-6.33 5.02 -6.66 3.04 -7 1 C-4 0 -4 0 0 0 Z " fill="#499AE0" transform="translate(185,173)"/>
<path d="M0 0 C0.66 0.33 1.32 0.66 2 1 C1.54625 1.37125 1.0925 1.7425 0.625 2.125 C-1.47029394 4.54264685 -2.12013285 6.95430602 -3 10 C-4.32 9.67 -5.64 9.34 -7 9 C-6.82374165 6.62051228 -6.30280227 5.29774151 -4.59765625 3.62109375 C-3.09350908 2.37884514 -1.54870149 1.18623944 0 0 Z " fill="#5BA7E6" transform="translate(153,164)"/>
<path d="M0 0 C0.66 0 1.32 0 2 0 C2.75 1.5625 2.75 1.5625 3 4 C1.86915563 6.50286409 0.47860484 8.67007722 -1 11 C-1.66 9.68 -2.32 8.36 -3 7 C-2.67 7 -2.34 7 -2 7 C-1.34 4.69 -0.68 2.38 0 0 Z " fill="#4F9EE2" transform="translate(196,151)"/>
<path d="M0 0 C4.59306496 1.4859916 7.43569245 3.85014682 11 7 C9.234375 7.67578125 9.234375 7.67578125 7 8 C5.078125 6.85546875 5.078125 6.85546875 3.25 5.1875 C2.63640625 4.64480469 2.0228125 4.10210937 1.390625 3.54296875 C0 2 0 2 0 0 Z " fill="#60A6E2" transform="translate(166,39)"/>
<path d="M0 0 C3.63 1.98 7.26 3.96 11 6 C7.17223377 6.95694156 5.62458922 7.23999105 2 6 C0.54286376 3.84898936 0 2.59713506 0 0 Z " fill="#5AA3E1" transform="translate(83,169)"/>
<path d="M0 0 C1.83610406 2.7541561 2.51804278 4.36304047 3.25 7.5 C3.44078125 8.2734375 3.6315625 9.046875 3.828125 9.84375 C4 12 4 12 2 15 C-0.08989546 9.68670645 -1.6112798 5.71271928 0 0 Z " fill="#61A6DF" transform="translate(29,131)"/>
<path d="M0 0 C1.79068573 2.6860286 2.66055791 4.6626589 3.625 7.6875 C3.88539062 8.49574219 4.14578125 9.30398437 4.4140625 10.13671875 C4.60742188 10.75160156 4.80078125 11.36648437 5 12 C3.02 12.99 3.02 12.99 1 14 C1.020625 13.05125 1.04125 12.1025 1.0625 11.125 C1.22551826 8.09333717 1.22551826 8.09333717 0 6 C-0.039992 4.00039988 -0.04346799 1.99952758 0 0 Z " fill="#58A2E0" transform="translate(63,140)"/>
<path d="M0 0 C0.66 0 1.32 0 2 0 C2.66 1.98 3.32 3.96 4 6 C3.01 6.99 2.02 7.98 1 9 C-1.09230769 4.56923077 -1.09230769 4.56923077 -0.625 1.6875 C-0.41875 1.130625 -0.2125 0.57375 0 0 Z " fill="#3E95E0" transform="translate(195,71)"/>
<path d="M0 0 C-0.99 0 -1.98 0 -3 0 C-3.33 0.99 -3.66 1.98 -4 3 C-7.3 3.33 -10.6 3.66 -14 4 C-11.97803833 1.97803833 -10.74135514 1.32448642 -8.125 0.3125 C-7.44695312 0.04050781 -6.76890625 -0.23148438 -6.0703125 -0.51171875 C-3.68892218 -1.07336741 -2.29569809 -0.76694846 0 0 Z " fill="#69ACE4" transform="translate(95,28)"/>
<path d="M0 0 C2.64 0.33 5.28 0.66 8 1 C5.06171403 3.50298434 2.82097239 4.46930939 -1 5 C-1.33 4.34 -1.66 3.68 -2 3 C-1.34 3 -0.68 3 0 3 C0 2.01 0 1.02 0 0 Z " fill="#4B99E2" transform="translate(150,194)"/>
<path d="M0 0 C1.9453125 -0.29296875 1.9453125 -0.29296875 4.125 -0.1875 C5.40375 -0.125625 6.6825 -0.06375 8 0 C8 0.33 8 0.66 8 1 C6.329375 1.2784375 6.329375 1.2784375 4.625 1.5625 C3.42875 2.036875 2.2325 2.51125 1 3 C-0.54086322 6.51400668 -0.54086322 6.51400668 -1 10 C-1.33 10 -1.66 10 -2 10 C-2.25 3.375 -2.25 3.375 0 0 Z " fill="#84BDE8" transform="translate(159,128)"/>
<path d="M0 0 C1.14926266 0.95421808 2.29430541 1.91352045 3.4375 2.875 C4.07558594 3.40867188 4.71367188 3.94234375 5.37109375 4.4921875 C7 6 7 6 8 8 C5.625 7.75 5.625 7.75 3 7 C1.6875 4.9375 1.6875 4.9375 1 3 C0.34 3 -0.32 3 -1 3 C-0.67 2.01 -0.34 1.02 0 0 Z " fill="#5AA0DF" transform="translate(75,161)"/>
<path d="M0 0 C1.0625 1.8125 1.0625 1.8125 2 4 C1.67 4.99 1.34 5.98 1 7 C-0.65 6.67 -2.3 6.34 -4 6 C-4 4.68 -4 3.36 -4 2 C-3.34 2.33 -2.68 2.66 -2 3 C-2 3.66 -2 4.32 -2 5 C-1.34 5 -0.68 5 0 5 C-0.33 4.01 -0.66 3.02 -1 2 C-0.67 1.34 -0.34 0.68 0 0 Z " fill="#308DE2" transform="translate(185,167)"/>
<path d="M0 0 C0.66 0.99 1.32 1.98 2 3 C1.01 3.33 0.02 3.66 -1 4 C-0.67 4.99 -0.34 5.98 0 7 C-1.65 7.33 -3.3 7.66 -5 8 C-3.62845496 5.04590299 -2.01136276 2.55991624 0 0 Z " fill="#58A3E1" transform="translate(48,55)"/>
<path d="M0 0 C1.65 0.33 3.3 0.66 5 1 C2.37801226 3.15377564 0.35595828 4.40072174 -3 5 C-3 4.01 -3 3.02 -3 2 C-2.01 2 -1.02 2 0 2 C0 1.34 0 0.68 0 0 Z " fill="#5CA2DF" transform="translate(63,205)"/>
<path d="M0 0 C3.96 0.33 7.92 0.66 12 1 C12 1.33 12 1.66 12 2 C8.7 2.66 5.4 3.32 2 4 C1.34 2.68 0.68 1.36 0 0 Z " fill="#6CB1EA" transform="translate(74,198)"/>
<path d="M0 0 C0.33 0 0.66 0 1 0 C1.19622241 4.21878192 0.80230168 7.17010894 -1 11 C-1.99 10.67 -2.98 10.34 -4 10 C-2.66666667 6.66666667 -1.33333333 3.33333333 0 0 Z " fill="#5DA5E3" transform="translate(166,145)"/>
<path d="M0 0 C7.75 0.75 7.75 0.75 10 3 C8.375 3.6875 8.375 3.6875 6 4 C2.75 2.5625 2.75 2.5625 0 1 C0 0.67 0 0.34 0 0 Z " fill="#57A1E0" transform="translate(94,162)"/>
<path d="M0 0 C0.66 0 1.32 0 2 0 C1.46930939 3.82097239 0.50298434 6.06171403 -2 9 C-2.25 3.375 -2.25 3.375 0 0 Z " fill="#59A1DF" transform="translate(155,138)"/>
<path d="M0 0 C0.33 0 0.66 0 1 0 C1 1.65 1 3.3 1 5 C0.34 5 -0.32 5 -1 5 C-1.33 5.99 -1.66 6.98 -2 8 C-2.66 8 -3.32 8 -4 8 C-2.87548273 5.0280615 -1.77706209 2.66559313 0 0 Z " fill="#58A1DF" transform="translate(42,63)"/>
<path d="M0 0 C6.625 0.75 6.625 0.75 10 3 C3.375 3.125 3.375 3.125 0 2 C0 1.34 0 0.68 0 0 Z " fill="#6CAFE4" transform="translate(95,177)"/>
<path d="M0 0 C2 3 2 3 1.625 5.6875 C1.41875 6.450625 1.2125 7.21375 1 8 C-1.35953094 5.64046906 -1.49141413 4.22104383 -2 1 C-1.34 0.67 -0.68 0.34 0 0 Z " fill="#59A4E2" transform="translate(34,145)"/>
</svg>
